<svg aria-hidden="true" style="position: absolute; width: 0; height: 0; overflow: hidden;" version="1.1" xmlns="http://www.w3.org/2000/svg" xmlns:xlink="http://www.w3.org/1999/xlink">
<defs>
<symbol id="icon-home" viewBox="0 0 32 32">
<path d="M32 18.451l-16-12.42-16 12.42v-5.064l16-12.42 16 12.42zM28 18v12h-8v-8h-8v8h-8v-12l12-9z"></path>
</symbol>
<symbol id="icon-home2" viewBox="0 0 32 32">
<path d="M16 1l-16 16 3 3 3-3v13h8v-6h4v6h8v-13l3 3 3-3-16-16zM16 14c-1.105 0-2-0.895-2-2s0.895-2 2-2c1.105 0 2 0.895 2 2s-0.895 2-2 2z"></path>
</symbol>
<symbol id="icon-Done" viewBox="0 0 32 32">
<path fill="#2fab73" style="fill: var(--color1, #2fab73)" d="M15.516 3.263c-7.058 0-12.8 5.742-12.8 12.8s5.742 12.8 12.8 12.8c7.058 0 12.8-5.742 12.8-12.8s-5.742-12.8-12.8-12.8zM12.957 21.712l-3.847-3.839c-0.5-0.499-0.501-1.309-0.002-1.809s1.31-0.502 1.81-0.002l2.037 2.033 5.871-5.871c0.5-0.5 1.31-0.5 1.81 0s0.5 1.31 0 1.81l-7.679 7.679z"></path>
</symbol>
<symbol id="icon-Address" viewBox="0 0 31 32">
<path fill="#f53838" style="fill: var(--color2, #f53838)" d="M24.32 12.223c0-1.177-0.232-2.342-0.682-3.429s-1.11-2.075-1.942-2.907c-0.832-0.832-1.82-1.492-2.907-1.942s-2.252-0.682-3.429-0.682c-1.177 0-2.342 0.232-3.429 0.682s-2.075 1.11-2.907 1.942c-0.832 0.832-1.492 1.82-1.942 2.907s-0.682 2.252-0.682 3.429c0 1.775 0.525 3.427 1.414 4.819h-0.010c3.021 4.73 7.556 11.821 7.556 11.821l7.556-11.821h-0.009c0.922-1.438 1.412-3.111 1.413-4.819zM15.36 16.063c-1.018 0-1.995-0.405-2.715-1.125s-1.125-1.697-1.125-2.715c0-1.018 0.405-1.995 1.125-2.715s1.697-1.125 2.715-1.125c1.018 0 1.995 0.405 2.715 1.125s1.125 1.697 1.125 2.715c0 1.018-0.405 1.995-1.125 2.715s-1.697 1.125-2.715 1.125z"></path>
</symbol>
<symbol id="icon-User" viewBox="0 0 32 32">
<path fill="#f53838" style="fill: var(--color2, #f53838)" d="M16 14.527c1.222 0 2.394-0.486 3.258-1.35s1.35-2.036 1.35-3.258-0.485-2.394-1.35-3.258c-0.864-0.864-2.036-1.35-3.258-1.35s-2.394 0.486-3.258 1.35c-0.864 0.864-1.35 2.036-1.35 3.258s0.485 2.394 1.35 3.258c0.864 0.864 2.036 1.35 3.258 1.35zM9.47 28.351c-2.332 0-4.296-1.96-3.404-4.115 0.54-1.304 1.332-2.49 2.331-3.488s2.184-1.79 3.488-2.331c1.304-0.54 2.703-0.818 4.115-0.818s2.81 0.278 4.115 0.818c1.305 0.54 2.49 1.332 3.488 2.331s1.79 2.184 2.331 3.488c0.892 2.154-1.072 4.115-3.404 4.115h-13.059z"></path>
</symbol>
<symbol id="icon-Servers" viewBox="0 0 32 32">
<path fill="#f53838" style="fill: var(--color2, #f53838)" d="M26.24 4.543h-20.48c-0.679 0-1.33 0.27-1.81 0.75s-0.75 1.131-0.75 1.81v5.12c0 0.679 0.27 1.33 0.75 1.81s1.131 0.75 1.81 0.75h20.48c0.679 0 1.33-0.27 1.81-0.75s0.75-1.131 0.75-1.81v-5.12c0-0.679-0.27-1.33-0.75-1.81s-1.131-0.75-1.81-0.75zM19.84 9.663c0 0.707-0.573 1.28-1.28 1.28s-1.28-0.573-1.28-1.28c0-0.707 0.573-1.28 1.28-1.28s1.28 0.573 1.28 1.28zM24.96 9.663c0 0.707-0.573 1.28-1.28 1.28s-1.28-0.573-1.28-1.28c0-0.707 0.573-1.28 1.28-1.28s1.28 0.573 1.28 1.28zM26.24 17.343h-20.48c-0.679 0-1.33 0.27-1.81 0.75s-0.75 1.131-0.75 1.81v5.12c0 0.679 0.27 1.33 0.75 1.81s1.131 0.75 1.81 0.75h20.48c0.679 0 1.33-0.27 1.81-0.75s0.75-1.131 0.75-1.81v-5.12c0-0.679-0.27-1.33-0.75-1.81s-1.131-0.75-1.81-0.75zM19.84 22.463c0 0.707-0.573 1.28-1.28 1.28s-1.28-0.573-1.28-1.28c0-0.707 0.573-1.28 1.28-1.28s1.28 0.573 1.28 1.28zM24.96 22.463c0 0.707-0.573 1.28-1.28 1.28s-1.28-0.573-1.28-1.28c0-0.707 0.573-1.28 1.28-1.28s1.28 0.573 1.28 1.28z"></path>
</symbol>
<symbol id="icon-Logo" viewBox="0 0 129 32">
<path fill="#0b132a" style="fill: var(--color3, #0b132a)" d="M40.683 21.722c-0.115 0-0.213-0.040-0.294-0.121s-0.121-0.179-0.121-0.294v-11.278c0-0.127 0.040-0.225 0.121-0.294 0.081-0.081 0.179-0.121 0.294-0.121h1.626c0.127 0 0.225 0.040 0.294 0.121 0.081 0.069 0.121 0.167 0.121 0.294v9.617h5.483c0.127 0 0.231 0.040 0.311 0.121s0.121 0.179 0.121 0.294v1.245c0 0.115-0.040 0.213-0.121 0.294s-0.184 0.121-0.311 0.121h-7.524zM52.723 21.895c-0.588 0-1.13-0.115-1.626-0.346-0.484-0.242-0.871-0.565-1.159-0.969-0.277-0.404-0.415-0.848-0.415-1.332 0-0.784 0.317-1.418 0.951-1.903s1.505-0.813 2.612-0.986l2.37-0.346v-0.363c0-0.496-0.127-0.871-0.381-1.124s-0.657-0.381-1.211-0.381c-0.381 0-0.686 0.069-0.917 0.208s-0.421 0.283-0.571 0.432c-0.138 0.138-0.231 0.231-0.277 0.277-0.046 0.138-0.133 0.208-0.259 0.208h-1.349c-0.104 0-0.196-0.035-0.277-0.104-0.069-0.069-0.104-0.161-0.104-0.277 0.011-0.288 0.15-0.611 0.415-0.969 0.277-0.369 0.698-0.686 1.263-0.951 0.565-0.277 1.263-0.415 2.093-0.415 1.361 0 2.352 0.306 2.975 0.917s0.934 1.413 0.934 2.404v5.431c0 0.115-0.040 0.213-0.121 0.294-0.069 0.081-0.167 0.121-0.294 0.121h-1.436c-0.115 0-0.213-0.040-0.294-0.121s-0.121-0.179-0.121-0.294v-0.675c-0.254 0.369-0.611 0.675-1.072 0.917-0.461 0.231-1.038 0.346-1.73 0.346zM53.311 20.235c0.634 0 1.153-0.208 1.557-0.623s0.605-1.015 0.605-1.799v-0.346l-1.73 0.277c-1.326 0.208-1.989 0.651-1.989 1.332 0 0.369 0.15 0.657 0.45 0.865 0.311 0.196 0.68 0.294 1.107 0.294zM63.435 21.895c-0.876 0-1.609-0.133-2.197-0.398s-1.026-0.571-1.315-0.917c-0.277-0.357-0.415-0.663-0.415-0.917 0-0.115 0.035-0.208 0.104-0.277 0.081-0.069 0.173-0.104 0.277-0.104h1.418c0.092 0 0.173 0.046 0.242 0.138 0.058 0.046 0.184 0.156 0.381 0.329 0.208 0.173 0.438 0.311 0.692 0.415 0.265 0.092 0.553 0.138 0.865 0.138 0.461 0 0.836-0.087 1.124-0.259 0.288-0.184 0.432-0.444 0.432-0.778 0-0.231-0.069-0.415-0.208-0.553-0.127-0.15-0.363-0.283-0.709-0.398-0.334-0.127-0.842-0.265-1.522-0.415-0.98-0.208-1.707-0.525-2.179-0.951-0.461-0.427-0.692-0.992-0.692-1.695 0-0.461 0.138-0.894 0.415-1.297 0.277-0.415 0.686-0.75 1.228-1.003 0.553-0.265 1.211-0.398 1.972-0.398 0.784 0 1.459 0.127 2.024 0.381 0.565 0.242 0.992 0.536 1.28 0.882 0.3 0.346 0.45 0.652 0.45 0.917 0 0.104-0.040 0.196-0.121 0.277-0.069 0.069-0.156 0.104-0.259 0.104h-1.297c-0.127 0-0.225-0.046-0.294-0.138-0.081-0.058-0.213-0.161-0.398-0.311-0.173-0.161-0.369-0.288-0.588-0.381s-0.484-0.138-0.796-0.138c-0.427 0-0.755 0.092-0.986 0.277s-0.346 0.427-0.346 0.726c0 0.208 0.052 0.381 0.156 0.519 0.115 0.138 0.34 0.271 0.675 0.398 0.334 0.115 0.836 0.236 1.505 0.363 2.076 0.404 3.114 1.309 3.114 2.716 0 0.819-0.357 1.482-1.072 1.989-0.703 0.507-1.689 0.761-2.958 0.761zM69.665 21.722c-0.115 0-0.213-0.040-0.294-0.121s-0.121-0.179-0.121-0.294v-11.451c0-0.127 0.040-0.225 0.121-0.294 0.081-0.081 0.179-0.121 0.294-0.121h1.453c0.127 0 0.225 0.040 0.294 0.121 0.081 0.069 0.121 0.167 0.121 0.294v11.451c0 0.115-0.040 0.213-0.121 0.294-0.069 0.081-0.167 0.121-0.294 0.121h-1.453zM77.719 21.895c-1.292 0-2.318-0.369-3.079-1.107-0.75-0.738-1.147-1.787-1.194-3.148l-0.017-0.432c0-1.441 0.375-2.577 1.124-3.408 0.761-0.83 1.81-1.245 3.148-1.245 1.372 0 2.427 0.415 3.165 1.245 0.749 0.83 1.124 1.937 1.124 3.321v0.363c0 0.115-0.040 0.213-0.121 0.294s-0.185 0.121-0.311 0.121h-5.743v0.138c0.023 0.646 0.196 1.182 0.519 1.609 0.334 0.415 0.79 0.623 1.367 0.623 0.657 0 1.194-0.265 1.609-0.796 0.104-0.127 0.184-0.202 0.242-0.225 0.058-0.035 0.156-0.052 0.294-0.052h1.522c0.104 0 0.19 0.029 0.259 0.087 0.081 0.058 0.121 0.138 0.121 0.242 0 0.277-0.167 0.605-0.502 0.986-0.323 0.369-0.79 0.692-1.401 0.969s-1.32 0.415-2.128 0.415zM79.605 16.429v-0.035c0-0.68-0.173-1.222-0.519-1.626-0.334-0.415-0.796-0.623-1.384-0.623s-1.049 0.208-1.384 0.623c-0.334 0.404-0.502 0.946-0.502 1.626v0.035h3.788zM87.252 21.895c-0.876 0-1.608-0.133-2.196-0.398s-1.026-0.571-1.315-0.917c-0.277-0.357-0.415-0.663-0.415-0.917 0-0.115 0.035-0.208 0.104-0.277 0.081-0.069 0.173-0.104 0.277-0.104h1.418c0.092 0 0.173 0.046 0.242 0.138 0.058 0.046 0.184 0.156 0.381 0.329 0.208 0.173 0.438 0.311 0.692 0.415 0.265 0.092 0.553 0.138 0.864 0.138 0.462 0 0.836-0.087 1.124-0.259 0.289-0.184 0.432-0.444 0.432-0.778 0-0.231-0.069-0.415-0.208-0.553-0.126-0.15-0.363-0.283-0.709-0.398-0.334-0.127-0.841-0.265-1.522-0.415-0.98-0.208-1.707-0.525-2.179-0.951-0.461-0.427-0.692-0.992-0.692-1.695 0-0.461 0.138-0.894 0.415-1.297 0.277-0.415 0.686-0.75 1.228-1.003 0.553-0.265 1.211-0.398 1.971-0.398 0.784 0 1.459 0.127 2.024 0.381 0.566 0.242 0.992 0.536 1.28 0.882 0.3 0.346 0.45 0.652 0.45 0.917 0 0.104-0.040 0.196-0.121 0.277-0.069 0.069-0.156 0.104-0.259 0.104h-1.297c-0.126 0-0.225-0.046-0.294-0.138-0.080-0.058-0.213-0.161-0.398-0.311-0.173-0.161-0.368-0.288-0.588-0.381s-0.484-0.138-0.796-0.138c-0.426 0-0.755 0.092-0.986 0.277s-0.346 0.427-0.346 0.726c0 0.208 0.052 0.381 0.156 0.519 0.115 0.138 0.34 0.271 0.674 0.398 0.335 0.115 0.836 0.236 1.505 0.363 2.076 0.404 3.114 1.309 3.114 2.716 0 0.819-0.357 1.482-1.072 1.989-0.703 0.507-1.689 0.761-2.958 0.761zM96.545 21.722c-0.196 0-0.358-0.046-0.484-0.138-0.116-0.104-0.196-0.231-0.242-0.381l-3.494-11.070-0.035-0.156c0-0.092 0.035-0.173 0.104-0.242 0.080-0.081 0.173-0.121 0.277-0.121h2.266c0.173 0 0.311 0.052 0.415 0.156 0.115 0.092 0.19 0.196 0.225 0.311l2.352 7.818 2.37-7.818c0.035-0.127 0.104-0.236 0.208-0.329 0.115-0.092 0.259-0.138 0.432-0.138h2.266c0.104 0 0.19 0.040 0.259 0.121 0.069 0.069 0.104 0.15 0.104 0.242 0 0.058-0.006 0.11-0.017 0.156l-3.511 11.070c-0.035 0.15-0.116 0.277-0.242 0.381-0.116 0.092-0.272 0.138-0.467 0.138h-2.785zM105.578 21.722c-0.115 0-0.219-0.040-0.311-0.121-0.080-0.092-0.121-0.196-0.121-0.311v-11.226c0-0.127 0.041-0.231 0.121-0.311 0.080-0.092 0.184-0.138 0.311-0.138h4.895c1.499 0 2.675 0.34 3.529 1.021s1.28 1.678 1.28 2.992c0 1.315-0.426 2.301-1.28 2.958-0.854 0.646-2.030 0.969-3.529 0.969h-1.972v3.736c0 0.115-0.041 0.219-0.121 0.311-0.080 0.081-0.184 0.121-0.311 0.121h-2.491zM110.387 15.080c0.473 0 0.841-0.121 1.107-0.363 0.277-0.254 0.415-0.623 0.415-1.107 0-0.45-0.127-0.813-0.381-1.090-0.242-0.277-0.623-0.415-1.142-0.415h-1.937v2.975h1.937zM117.318 21.722c-0.115 0-0.219-0.040-0.311-0.121-0.080-0.092-0.121-0.196-0.121-0.311v-11.226c0-0.127 0.041-0.231 0.121-0.311 0.080-0.092 0.184-0.138 0.311-0.138h1.955c0.266 0 0.461 0.11 0.588 0.329l4.082 6.452v-6.331c0-0.127 0.041-0.231 0.121-0.311 0.080-0.092 0.184-0.138 0.311-0.138h2.197c0.127 0 0.231 0.046 0.311 0.138 0.080 0.081 0.121 0.184 0.121 0.311v11.209c0 0.127-0.041 0.236-0.121 0.329-0.080 0.081-0.184 0.121-0.311 0.121h-1.955c-0.266 0-0.461-0.11-0.588-0.329l-4.065-6.192v6.089c0 0.127-0.046 0.231-0.138 0.311-0.080 0.081-0.184 0.121-0.311 0.121h-2.197z"></path>
<path fill="#f53838" style="fill: var(--color2, #f53838)" d="M26.938 11.803l-0.019-0.019c-0.001-0.001-0.003-0.002-0.003-0.004l-11.78-11.78-11.78 11.78c-0.001 0.001-0.003 0.004-0.003 0.004l-0.019 0.019c-1.801 1.811-2.946 4.173-3.251 6.709s0.246 5.102 1.567 7.289c1.32 2.187 3.334 3.87 5.72 4.781s5.009 0.998 7.451 0.248c0.205-0.063 0.425-0.063 0.631 0 2.442 0.75 5.064 0.663 7.451-0.248s4.4-2.594 5.72-4.781c1.32-2.187 1.872-4.752 1.567-7.289s-1.449-4.898-3.25-6.709zM7.544 19.572c-0.057 0.057-0.103 0.125-0.134 0.2s-0.047 0.155-0.047 0.236c0.021 2.079 0.609 4.113 1.7 5.883 0.025 0.040 0.036 0.087 0.033 0.134s-0.022 0.092-0.052 0.128c-0.031 0.036-0.072 0.061-0.117 0.073s-0.094 0.008-0.138-0.010c-0.82-0.345-1.565-0.847-2.194-1.476-1.288-1.288-2.012-3.034-2.013-4.855s0.721-3.568 2.006-4.858l8.547-8.546 8.547 8.546c1.286 1.289 2.008 3.037 2.007 4.858s-0.725 3.568-2.013 4.855c-0.628 0.63-1.373 1.131-2.193 1.476-0.044 0.018-0.092 0.021-0.138 0.010s-0.087-0.037-0.117-0.073c-0.030-0.036-0.049-0.081-0.052-0.128s0.008-0.094 0.033-0.134c1.091-1.77 1.679-3.804 1.7-5.883 0-0.081-0.016-0.161-0.047-0.236s-0.077-0.143-0.134-0.2l-4.043-4.288c-0.040-0.034-0.091-0.052-0.143-0.052s-0.103 0.018-0.143 0.052c-0.040 0.033-0.067 0.080-0.077 0.132s-0 0.105 0.025 0.15c1.57 2.841 0.22 6.922-2.032 9.174l-0.012 0.012c-0.311 0.307-0.73 0.48-1.167 0.48s-0.857-0.173-1.167-0.48l-0.011-0.011c-2.252-2.252-3.602-6.332-2.031-9.173 0.026-0.046 0.035-0.099 0.025-0.15s-0.037-0.098-0.077-0.132c-0.040-0.034-0.091-0.052-0.143-0.052s-0.103 0.018-0.143 0.052l-4.043 4.287z"></path>
</symbol>
<symbol id="icon-Star" viewBox="0 0 32 32">
<path fill="#fea250" style="fill: var(--color4, #fea250)" d="M30.146 12.384l-9.068-1.318-4.054-8.218c-0.111-0.225-0.293-0.407-0.518-0.518-0.564-0.279-1.25-0.046-1.532 0.518l-4.054 8.218-9.068 1.318c-0.25 0.036-0.479 0.154-0.654 0.332-0.212 0.217-0.328 0.51-0.324 0.813s0.128 0.593 0.346 0.804l6.561 6.396-1.55 9.032c-0.036 0.21-0.013 0.426 0.067 0.624s0.214 0.369 0.387 0.494 0.377 0.2 0.589 0.215c0.213 0.015 0.425-0.029 0.614-0.129l8.111-4.264 8.111 4.264c0.221 0.118 0.479 0.157 0.725 0.114 0.622-0.107 1.039-0.696 0.932-1.318l-1.55-9.032 6.561-6.396c0.178-0.175 0.296-0.404 0.332-0.654 0.096-0.625-0.339-1.204-0.964-1.296z"></path>
</symbol>
<symbol id="icon-Done2" viewBox="0 0 45 32">
<path fill="#2fab73" style="fill: var(--color1, #2fab73)" d="M17.215 29.695c-0.42 0.001-0.836-0.081-1.224-0.242s-0.741-0.396-1.038-0.693l-13.574-13.578c-0.306-0.295-0.55-0.648-0.718-1.038s-0.257-0.81-0.261-1.235 0.077-0.846 0.237-1.24c0.161-0.393 0.398-0.751 0.698-1.052s0.657-0.539 1.050-0.7 0.814-0.242 1.239-0.239c0.425 0.003 0.845 0.091 1.235 0.259s0.744 0.411 1.039 0.716l11.312 11.312 20.368-20.362c0.6-0.6 1.414-0.938 2.263-0.938s1.663 0.337 2.263 0.937c0.601 0.6 0.938 1.414 0.938 2.263s-0.337 1.663-0.937 2.264l-22.63 22.63c-0.297 0.297-0.65 0.532-1.038 0.693s-0.804 0.242-1.224 0.242z"></path>
</symbol>
</defs>
</svg>
